<svg id="visual" viewBox="0 0 900 600" width="900" height="600" xmlns="http://www.w3.org/2000/svg" xmlns:xlink="http://www.w3.org/1999/xlink" version="1.1"><rect x="0" y="0" width="900" height="600" fill="#f5f5f5"></rect><defs><linearGradient id="grad1_0" x1="33.3%" y1="0%" x2="100%" y2="100%"><stop offset="20%" stop-color="#f5f5f5" stop-opacity="1"></stop><stop offset="80%" stop-color="#f5f5f5" stop-opacity="1"></stop></linearGradient></defs><defs><linearGradient id="grad2_0" x1="0%" y1="0%" x2="66.7%" y2="100%"><stop offset="20%" stop-color="#f5f5f5" stop-opacity="1"></stop><stop offset="80%" stop-color="#f5f5f5" stop-opacity="1"></stop></linearGradient></defs><g transform="translate(900, 0)"><path d="M0 459.7C-54.4 441.1 -108.8 422.4 -167.2 403.7C-225.7 385 -288.1 366.3 -325.1 325.1C-362 283.8 -373.5 220.2 -391.7 162.3C-409.9 104.3 -434.8 52.2 -459.7 0L0 0Z" fill="#d3dff4"></path></g><g transform="translate(0, 600)"><path d="M0 -459.7C56.6 -448.1 113.2 -436.5 173 -417.6C232.8 -398.6 295.8 -372.3 325.1 -325.1C354.4 -277.8 350 -209.6 366.8 -151.9C383.6 -94.3 421.7 -47.1 459.7 0L0 0Z" fill="#d3dff4"></path></g></svg>