<?xml version="1.0" encoding="utf-8"?>
<svg id="visual" viewBox="0 0 900 600" width="900" height="600" version="1.1" xmlns="http://www.w3.org/2000/svg">
  <rect width="900" height="600" x="-900" transform="matrix(-1, 0, 0, 1, 0, 0)" style="fill: rgb(211, 223, 244);"/>
  <g transform="matrix(-1, 0, 0, 1, -0.000013, 0)">
    <path d="M0 459.7C-54.4 441.1 -108.8 422.4 -167.2 403.7C-225.7 385 -288.1 366.3 -325.1 325.1C-362 283.8 -373.5 220.2 -391.7 162.3C-409.9 104.3 -434.8 52.2 -459.7 0L0 0Z" style="fill: rgb(245, 245, 245);"/>
  </g>
  <g transform="matrix(-1, 0, 0, 1, 900, 600)">
    <path d="M0 -459.7C56.6 -448.1 113.2 -436.5 173 -417.6C232.8 -398.6 295.8 -372.3 325.1 -325.1C354.4 -277.8 350 -209.6 366.8 -151.9C383.6 -94.3 421.7 -47.1 459.7 0L0 0Z" style="fill: rgb(245, 245, 245);"/>
  </g>
</svg>