<svg id="visual" viewBox="0 0 675 900" width="675" height="900" xmlns="http://www.w3.org/2000/svg" xmlns:xlink="http://www.w3.org/1999/xlink" version="1.1"><path d="M640 900L640 875C640 850 640 800 639 750C638 700 636 650 633.8 600C631.7 550 629.3 500 631.5 450C633.7 400 640.3 350 641.5 300C642.7 250 638.3 200 633.8 150C629.3 100 624.7 50 622.3 25L620 0L675 0L675 25C675 50 675 100 675 150C675 200 675 250 675 300C675 350 675 400 675 450C675 500 675 550 675 600C675 650 675 700 675 750C675 800 675 850 675 875L675 900Z" fill="#cbd8f1"></path><path d="M593 900L596.3 875C599.7 850 606.3 800 606.3 750C606.3 700 599.7 650 599.7 600C599.7 550 606.3 500 608.7 450C611 400 609 350 604.5 300C600 250 593 200 591.8 150C590.7 100 595.3 50 597.7 25L600 0L621 0L623.3 25C625.7 50 630.3 100 634.8 150C639.3 200 643.7 250 642.5 300C641.3 350 634.7 400 632.5 450C630.3 500 632.7 550 634.8 600C637 650 639 700 640 750C641 800 641 850 641 875L641 900Z" fill="#d6e1f4"></path><path d="M532 900L537.7 875C543.3 850 554.7 800 558.2 750C561.7 700 557.3 650 549.5 600C541.7 550 530.3 500 521.3 450C512.3 400 505.7 350 497.7 300C489.7 250 480.3 200 485.8 150C491.3 100 511.7 50 521.8 25L532 0L601 0L598.7 25C596.3 50 591.7 100 592.8 150C594 200 601 250 605.5 300C610 350 612 400 609.7 450C607.3 500 600.7 550 600.7 600C600.7 650 607.3 700 607.3 750C607.3 800 600.7 850 597.3 875L594 900Z" fill="#e2e9f7"></path><path d="M465 900L469.5 875C474 850 483 800 489.7 750C496.3 700 500.7 650 495 600C489.3 550 473.7 500 461.3 450C449 400 440 350 436.7 300C433.3 250 435.7 200 447 150C458.3 100 478.7 50 488.8 25L499 0L533 0L522.8 25C512.7 50 492.3 100 486.8 150C481.3 200 490.7 250 498.7 300C506.7 350 513.3 400 522.3 450C531.3 500 542.7 550 550.5 600C558.3 650 562.7 700 559.2 750C555.7 800 544.3 850 538.7 875L533 900Z" fill="#e7eef9"></path><path d="M262 900L275.5 875C289 850 316 800 343 750C370 700 397 650 398.2 600C399.3 550 374.7 500 366.8 450C359 400 368 350 371.3 300C374.7 250 372.3 200 360 150C347.7 100 325.3 50 314.2 25L303 0L500 0L489.8 25C479.7 50 459.3 100 448 150C436.7 200 434.3 250 437.7 300C441 350 450 400 462.3 450C474.7 500 490.3 550 496 600C501.7 650 497.3 700 490.7 750C484 800 475 850 470.5 875L466 900Z" fill="#ebf1fa"></path><path d="M242 900L253.3 875C264.7 850 287.3 800 307.7 750C328 700 346 650 344.8 600C343.7 550 323.3 500 318.8 450C314.3 400 325.7 350 331.3 300C337 250 337 200 320 150C303 100 269 50 252 25L235 0L304 0L315.2 25C326.3 50 348.7 100 361 150C373.3 200 375.7 250 372.3 300C369 350 360 400 367.8 450C375.7 500 400.3 550 399.2 600C398 650 371 700 344 750C317 800 290 850 276.5 875L263 900Z" fill="#edf2fa"></path><path d="M222 900L233.2 875C244.3 850 266.7 800 286.8 750C307 700 325 650 321.7 600C318.3 550 293.7 500 287 450C280.3 400 291.7 350 298.5 300C305.3 250 307.7 200 290.8 150C274 100 238 50 220 25L202 0L236 0L253 25C270 50 304 100 321 150C338 200 338 250 332.3 300C326.7 350 315.3 400 319.8 450C324.3 500 344.7 550 345.8 600C347 650 329 700 308.7 750C288.3 800 265.7 850 254.3 875L243 900Z" fill="#edf2fa"></path><path d="M202 900L209.8 875C217.7 850 233.3 800 253.5 750C273.7 700 298.3 650 299.5 600C300.7 550 278.3 500 272.7 450C267 400 278 350 281.3 300C284.7 250 280.3 200 262.3 150C244.3 100 212.7 50 196.8 25L181 0L203 0L221 25C239 50 275 100 291.8 150C308.7 200 306.3 250 299.5 300C292.7 350 281.3 400 288 450C294.7 500 319.3 550 322.7 600C326 650 308 700 287.8 750C267.7 800 245.3 850 234.2 875L223 900Z" fill="#ebf1fa"></path><path d="M73 900L74.2 875C75.3 850 77.7 800 84.5 750C91.3 700 102.7 650 110.5 600C118.3 550 122.7 500 123.8 450C125 400 123 350 116.3 300C109.7 250 98.3 200 89.2 150C80 100 73 50 69.5 25L66 0L182 0L197.8 25C213.7 50 245.3 100 263.3 150C281.3 200 285.7 250 282.3 300C279 350 268 400 273.7 450C279.3 500 301.7 550 300.5 600C299.3 650 274.7 700 254.5 750C234.3 800 218.7 850 210.8 875L203 900Z" fill="#e7eef9"></path><path d="M46 900L47.2 875C48.3 850 50.7 800 54 750C57.3 700 61.7 650 67.3 600C73 550 80 500 75.7 450C71.3 400 55.7 350 51.2 300C46.7 250 53.3 200 53.3 150C53.3 100 46.7 50 43.3 25L40 0L67 0L70.5 25C74 50 81 100 90.2 150C99.3 200 110.7 250 117.3 300C124 350 126 400 124.8 450C123.7 500 119.3 550 111.5 600C103.7 650 92.3 700 85.5 750C78.7 800 76.3 850 75.2 875L74 900Z" fill="#e2e9f7"></path><path d="M26 900L26 875C26 850 26 800 29.3 750C32.7 700 39.3 650 42.7 600C46 550 46 500 40.5 450C35 400 24 350 19.5 300C15 250 17 200 18 150C19 100 19 50 19 25L19 0L41 0L44.3 25C47.7 50 54.3 100 54.3 150C54.3 200 47.7 250 52.2 300C56.7 350 72.3 400 76.7 450C81 500 74 550 68.3 600C62.7 650 58.3 700 55 750C51.7 800 49.3 850 48.2 875L47 900Z" fill="#d6e1f4"></path><path d="M0 900L0 875C0 850 0 800 0 750C0 700 0 650 0 600C0 550 0 500 0 450C0 400 0 350 0 300C0 250 0 200 0 150C0 100 0 50 0 25L0 0L20 0L20 25C20 50 20 100 19 150C18 200 16 250 20.5 300C25 350 36 400 41.5 450C47 500 47 550 43.7 600C40.3 650 33.7 700 30.3 750C27 800 27 850 27 875L27 900Z" fill="#cbd8f1"></path></svg>