<svg id="visual" viewBox="0 0 540 960" width="540" height="960" xmlns="http://www.w3.org/2000/svg" xmlns:xlink="http://www.w3.org/1999/xlink" version="1.1"><path d="M517 960L517 945.5C517 931 517 902 517 872.8C517 843.7 517 814.3 516.2 785.2C515.3 756 513.7 727 513.7 698C513.7 669 515.3 640 518 611C520.7 582 524.3 553 524.3 523.8C524.3 494.7 520.7 465.3 519.8 436.2C519 407 521 378 521 349C521 320 519 291 519 262C519 233 521 204 521 174.8C521 145.7 519 116.3 518 87.2C517 58 517 29 517 14.5L517 0L540 0L540 14.5C540 29 540 58 540 87.2C540 116.3 540 145.7 540 174.8C540 204 540 233 540 262C540 291 540 320 540 349C540 378 540 407 540 436.2C540 465.3 540 494.7 540 523.8C540 553 540 582 540 611C540 640 540 669 540 698C540 727 540 756 540 785.2C540 814.3 540 843.7 540 872.8C540 902 540 931 540 945.5L540 960Z" fill="#adc4ec"></path><path d="M501 960L497.5 945.5C494 931 487 902 481.7 872.8C476.3 843.7 472.7 814.3 474.3 785.2C476 756 483 727 485.7 698C488.3 669 486.7 640 489.5 611C492.3 582 499.7 553 500.5 523.8C501.3 494.7 495.7 465.3 489.3 436.2C483 407 476 378 473.3 349C470.7 320 472.3 291 471.3 262C470.3 233 466.7 204 464 174.8C461.3 145.7 459.7 116.3 464.2 87.2C468.7 58 479.3 29 484.7 14.5L490 0L518 0L518 14.5C518 29 518 58 519 87.2C520 116.3 522 145.7 522 174.8C522 204 520 233 520 262C520 291 522 320 522 349C522 378 520 407 520.8 436.2C521.7 465.3 525.3 494.7 525.3 523.8C525.3 553 521.7 582 519 611C516.3 640 514.7 669 514.7 698C514.7 727 516.3 756 517.2 785.2C518 814.3 518 843.7 518 872.8C518 902 518 931 518 945.5L518 960Z" fill="#bacdf1"></path><path d="M469 960L466.3 945.5C463.7 931 458.3 902 452.8 872.8C447.3 843.7 441.7 814.3 444.3 785.2C447 756 458 727 460.8 698C463.7 669 458.3 640 459.2 611C460 582 467 553 470.5 523.8C474 494.7 474 465.3 467.7 436.2C461.3 407 448.7 378 443.3 349C438 320 440 291 441.8 262C443.7 233 445.3 204 441.7 174.8C438 145.7 429 116.3 433.5 87.2C438 58 456 29 465 14.5L474 0L491 0L485.7 14.5C480.3 29 469.7 58 465.2 87.2C460.7 116.3 462.3 145.7 465 174.8C467.7 204 471.3 233 472.3 262C473.3 291 471.7 320 474.3 349C477 378 484 407 490.3 436.2C496.7 465.3 502.3 494.7 501.5 523.8C500.7 553 493.3 582 490.5 611C487.7 640 489.3 669 486.7 698C484 727 477 756 475.3 785.2C473.7 814.3 477.3 843.7 482.7 872.8C488 902 495 931 498.5 945.5L502 960Z" fill="#c6d7f5"></path><path d="M355 960L361.3 945.5C367.7 931 380.3 902 384 872.8C387.7 843.7 382.3 814.3 372.5 785.2C362.7 756 348.3 727 337.5 698C326.7 669 319.3 640 321.2 611C323 582 334 553 345.7 523.8C357.3 494.7 369.7 465.3 374.2 436.2C378.7 407 375.3 378 369.2 349C363 320 354 291 349.5 262C345 233 345 204 347.7 174.8C350.3 145.7 355.7 116.3 366.3 87.2C377 58 393 29 401 14.5L409 0L475 0L466 14.5C457 29 439 58 434.5 87.2C430 116.3 439 145.7 442.7 174.8C446.3 204 444.7 233 442.8 262C441 291 439 320 444.3 349C449.7 378 462.3 407 468.7 436.2C475 465.3 475 494.7 471.5 523.8C468 553 461 582 460.2 611C459.3 640 464.7 669 461.8 698C459 727 448 756 445.3 785.2C442.7 814.3 448.3 843.7 453.8 872.8C459.3 902 464.7 931 467.3 945.5L470 960Z" fill="#d3e1f9"></path><path d="M307 960L310.5 945.5C314 931 321 902 323.7 872.8C326.3 843.7 324.7 814.3 319.3 785.2C314 756 305 727 293.3 698C281.7 669 267.3 640 264.7 611C262 582 271 553 279 523.8C287 494.7 294 465.3 303.8 436.2C313.7 407 326.3 378 327.3 349C328.3 320 317.7 291 311.3 262C305 233 303 204 306.5 174.8C310 145.7 319 116.3 330.8 87.2C342.7 58 357.3 29 364.7 14.5L372 0L410 0L402 14.5C394 29 378 58 367.3 87.2C356.7 116.3 351.3 145.7 348.7 174.8C346 204 346 233 350.5 262C355 291 364 320 370.2 349C376.3 378 379.7 407 375.2 436.2C370.7 465.3 358.3 494.7 346.7 523.8C335 553 324 582 322.2 611C320.3 640 327.7 669 338.5 698C349.3 727 363.7 756 373.5 785.2C383.3 814.3 388.7 843.7 385 872.8C381.3 902 368.7 931 362.3 945.5L356 960Z" fill="#e1ebfd"></path><path d="M280 960L286.3 945.5C292.7 931 305.3 902 309.8 872.8C314.3 843.7 310.7 814.3 301.7 785.2C292.7 756 278.3 727 265.7 698C253 669 242 640 241 611C240 582 249 553 257.2 523.8C265.3 494.7 272.7 465.3 280.8 436.2C289 407 298 378 298 349C298 320 289 291 286.3 262C283.7 233 287.3 204 291.8 174.8C296.3 145.7 301.7 116.3 310.7 87.2C319.7 58 332.3 29 338.7 14.5L345 0L373 0L365.7 14.5C358.3 29 343.7 58 331.8 87.2C320 116.3 311 145.7 307.5 174.8C304 204 306 233 312.3 262C318.7 291 329.3 320 328.3 349C327.3 378 314.7 407 304.8 436.2C295 465.3 288 494.7 280 523.8C272 553 263 582 265.7 611C268.3 640 282.7 669 294.3 698C306 727 315 756 320.3 785.2C325.7 814.3 327.3 843.7 324.7 872.8C322 902 315 931 311.5 945.5L308 960Z" fill="#e6efff"></path><path d="M220 960L229 945.5C238 931 256 902 257 872.8C258 843.7 242 814.3 224 785.2C206 756 186 727 175.2 698C164.3 669 162.7 640 171.7 611C180.7 582 200.3 553 204 523.8C207.7 494.7 195.3 465.3 200.8 436.2C206.3 407 229.7 378 231.3 349C233 320 213 291 210.3 262C207.7 233 222.3 204 226.8 174.8C231.3 145.7 225.7 116.3 230.2 87.2C234.7 58 249.3 29 256.7 14.5L264 0L346 0L339.7 14.5C333.3 29 320.7 58 311.7 87.2C302.7 116.3 297.3 145.7 292.8 174.8C288.3 204 284.7 233 287.3 262C290 291 299 320 299 349C299 378 290 407 281.8 436.2C273.7 465.3 266.3 494.7 258.2 523.8C250 553 241 582 242 611C243 640 254 669 266.7 698C279.3 727 293.7 756 302.7 785.2C311.7 814.3 315.3 843.7 310.8 872.8C306.3 902 293.7 931 287.3 945.5L281 960Z" fill="#e6efff"></path><path d="M118 960L116.2 945.5C114.3 931 110.7 902 111.5 872.8C112.3 843.7 117.7 814.3 116.8 785.2C116 756 109 727 101.8 698C94.7 669 87.3 640 91.8 611C96.3 582 112.7 553 114.5 523.8C116.3 494.7 103.7 465.3 103.7 436.2C103.7 407 116.3 378 121.7 349C127 320 125 291 123.2 262C121.3 233 119.7 204 117 174.8C114.3 145.7 110.7 116.3 115.2 87.2C119.7 58 132.3 29 138.7 14.5L145 0L265 0L257.7 14.5C250.3 29 235.7 58 231.2 87.2C226.7 116.3 232.3 145.7 227.8 174.8C223.3 204 208.7 233 211.3 262C214 291 234 320 232.3 349C230.7 378 207.3 407 201.8 436.2C196.3 465.3 208.7 494.7 205 523.8C201.3 553 181.7 582 172.7 611C163.7 640 165.3 669 176.2 698C187 727 207 756 225 785.2C243 814.3 259 843.7 258 872.8C257 902 239 931 230 945.5L221 960Z" fill="#e1ebfd"></path><path d="M91 960L91.8 945.5C92.7 931 94.3 902 95.2 872.8C96 843.7 96 814.3 92.5 785.2C89 756 82 727 74.8 698C67.7 669 60.3 640 67.5 611C74.7 582 96.3 553 100.8 523.8C105.3 494.7 92.7 465.3 90 436.2C87.3 407 94.7 378 96.5 349C98.3 320 94.7 291 94.7 262C94.7 233 98.3 204 97.3 174.8C96.3 145.7 90.7 116.3 91.5 87.2C92.3 58 99.7 29 103.3 14.5L107 0L146 0L139.7 14.5C133.3 29 120.7 58 116.2 87.2C111.7 116.3 115.3 145.7 118 174.8C120.7 204 122.3 233 124.2 262C126 291 128 320 122.7 349C117.3 378 104.7 407 104.7 436.2C104.7 465.3 117.3 494.7 115.5 523.8C113.7 553 97.3 582 92.8 611C88.3 640 95.7 669 102.8 698C110 727 117 756 117.8 785.2C118.7 814.3 113.3 843.7 112.5 872.8C111.7 902 115.3 931 117.2 945.5L119 960Z" fill="#d3e1f9"></path><path d="M75 960L75.8 945.5C76.7 931 78.3 902 79.2 872.8C80 843.7 80 814.3 76.3 785.2C72.7 756 65.3 727 58.2 698C51 669 44 640 51.3 611C58.7 582 80.3 553 83 523.8C85.7 494.7 69.3 465.3 63.8 436.2C58.3 407 63.7 378 64.5 349C65.3 320 61.7 291 61.7 262C61.7 233 65.3 204 65.3 174.8C65.3 145.7 61.7 116.3 64.3 87.2C67 58 76 29 80.5 14.5L85 0L108 0L104.3 14.5C100.7 29 93.3 58 92.5 87.2C91.7 116.3 97.3 145.7 98.3 174.8C99.3 204 95.7 233 95.7 262C95.7 291 99.3 320 97.5 349C95.7 378 88.3 407 91 436.2C93.7 465.3 106.3 494.7 101.8 523.8C97.3 553 75.7 582 68.5 611C61.3 640 68.7 669 75.8 698C83 727 90 756 93.5 785.2C97 814.3 97 843.7 96.2 872.8C95.3 902 93.7 931 92.8 945.5L92 960Z" fill="#c6d7f5"></path><path d="M42 960L39.3 945.5C36.7 931 31.3 902 31.3 872.8C31.3 843.7 36.7 814.3 34.8 785.2C33 756 24 727 20.5 698C17 669 19 640 24.5 611C30 582 39 553 39.8 523.8C40.7 494.7 33.3 465.3 29.7 436.2C26 407 26 378 26 349C26 320 26 291 26 262C26 233 26 204 27.8 174.8C29.7 145.7 33.3 116.3 35.2 87.2C37 58 37 29 37 14.5L37 0L86 0L81.5 14.5C77 29 68 58 65.3 87.2C62.7 116.3 66.3 145.7 66.3 174.8C66.3 204 62.7 233 62.7 262C62.7 291 66.3 320 65.5 349C64.7 378 59.3 407 64.8 436.2C70.3 465.3 86.7 494.7 84 523.8C81.3 553 59.7 582 52.3 611C45 640 52 669 59.2 698C66.3 727 73.7 756 77.3 785.2C81 814.3 81 843.7 80.2 872.8C79.3 902 77.7 931 76.8 945.5L76 960Z" fill="#bacdf1"></path><path d="M0 960L0 945.5C0 931 0 902 0 872.8C0 843.7 0 814.3 0 785.2C0 756 0 727 0 698C0 669 0 640 0 611C0 582 0 553 0 523.8C0 494.7 0 465.3 0 436.2C0 407 0 378 0 349C0 320 0 291 0 262C0 233 0 204 0 174.8C0 145.7 0 116.3 0 87.2C0 58 0 29 0 14.5L0 0L38 0L38 14.5C38 29 38 58 36.2 87.2C34.3 116.3 30.7 145.7 28.8 174.8C27 204 27 233 27 262C27 291 27 320 27 349C27 378 27 407 30.7 436.2C34.3 465.3 41.7 494.7 40.8 523.8C40 553 31 582 25.5 611C20 640 18 669 21.5 698C25 727 34 756 35.8 785.2C37.7 814.3 32.3 843.7 32.3 872.8C32.3 902 37.7 931 40.3 945.5L43 960Z" fill="#adc4ec"></path></svg>