<svg id="visual" viewBox="0 0 900 600" width="900" height="600" xmlns="http://www.w3.org/2000/svg" xmlns:xlink="http://www.w3.org/1999/xlink" version="1.1"><rect x="0" y="0" width="900" height="600" fill="#f5f5f5"></rect><defs><linearGradient id="grad1_0" x1="33.3%" y1="100%" x2="100%" y2="0%"><stop offset="20%" stop-color="#f5f5f5" stop-opacity="1"></stop><stop offset="80%" stop-color="#f5f5f5" stop-opacity="1"></stop></linearGradient></defs><defs><linearGradient id="grad2_0" x1="0%" y1="100%" x2="66.7%" y2="0%"><stop offset="20%" stop-color="#f5f5f5" stop-opacity="1"></stop><stop offset="80%" stop-color="#f5f5f5" stop-opacity="1"></stop></linearGradient></defs><g transform="translate(900, 600)"><path d="M-486.7 0C-463.7 -46.4 -440.6 -92.7 -422.3 -137.2C-404 -181.7 -390.5 -224.3 -370.5 -269.2C-350.6 -314.1 -324.2 -361.2 -286.1 -393.8C-248 -426.4 -198.3 -444.4 -148.6 -457.5C-99 -470.5 -49.5 -478.6 0 -486.7L0 0Z" fill="#dee7f7"></path></g><g transform="translate(0, 0)"><path d="M486.7 0C454.7 41 422.6 82.1 413.7 134.4C404.8 186.7 419.1 250.4 393.8 286.1C368.5 321.9 303.5 329.8 257.4 354.3C211.4 378.9 184.4 420.2 144.6 445.1C104.9 469.9 52.4 478.3 0 486.7L0 0Z" fill="#dee7f7"></path></g></svg>