<svg id="visual" viewBox="0 0 900 600" width="900" height="600" xmlns="http://www.w3.org/2000/svg" xmlns:xlink="http://www.w3.org/1999/xlink" version="1.1"><rect x="0" y="0" width="900" height="600" fill="#f6f6f6"></rect><path d="M0 393L21.5 386.3C43 379.7 86 366.3 128.8 361.2C171.7 356 214.3 359 257.2 376C300 393 343 424 385.8 440.3C428.7 456.7 471.3 458.3 514.2 440.8C557 423.3 600 386.7 642.8 372.8C685.7 359 728.3 368 771.2 367.5C814 367 857 357 878.5 352L900 347L900 601L878.5 601C857 601 814 601 771.2 601C728.3 601 685.7 601 642.8 601C600 601 557 601 514.2 601C471.3 601 428.7 601 385.8 601C343 601 300 601 257.2 601C214.3 601 171.7 601 128.8 601C86 601 43 601 21.5 601L0 601Z" fill="#d4e3fd"></path><path d="M0 434L21.5 433.2C43 432.3 86 430.7 128.8 445C171.7 459.3 214.3 489.7 257.2 488.3C300 487 343 454 385.8 456.3C428.7 458.7 471.3 496.3 514.2 500.8C557 505.3 600 476.7 642.8 463.7C685.7 450.7 728.3 453.3 771.2 466.7C814 480 857 504 878.5 516L900 528L900 601L878.5 601C857 601 814 601 771.2 601C728.3 601 685.7 601 642.8 601C600 601 557 601 514.2 601C471.3 601 428.7 601 385.8 601C343 601 300 601 257.2 601C214.3 601 171.7 601 128.8 601C86 601 43 601 21.5 601L0 601Z" fill="#bcd5ff"></path></svg>